# Blender v2.81 (sub 16) OBJ File: 'dreadnaughtBody2.blend'
# www.blender.org
mtllib dreadnaughtBody.mtl
o Cylinder
v 0.251409 1.784397 2.171431
v 0.095670 2.160383 -2.407254
v 0.464544 1.926809 2.171431
v 0.176776 2.214576 -2.407254
v 0.606956 2.139943 2.171431
v 0.230970 2.295682 -2.407254
v 0.656965 2.391353 2.171431
v 0.250000 2.391353 -2.407254
v 0.606956 2.642762 2.171431
v 0.230970 2.487024 -2.407254
v 0.464544 2.855897 2.171431
v 0.176776 2.568130 -2.407254
v 0.251409 2.998309 2.171431
v 0.095670 2.622323 -2.407254
v 0.574025 1.005533 -1.559976
v 0.765366 0.543594 0.000000
v 0.622572 0.888329 1.405458
v 1.060660 1.330692 -1.559976
v 1.414213 0.977139 -0.000000
v 1.150364 1.240988 1.405457
v 1.385819 1.817327 -1.559976
v 1.847759 1.625986 -0.000000
v 1.500000 2.391353 -1.559976
v 2.000000 2.391353 -0.000000
v 1.626861 2.391353 1.405457
v 1.385819 2.965378 -1.559976
v 1.847759 3.156720 -0.000000
v 1.503024 3.013926 1.405457
v 1.060660 3.452013 -1.559976
v 1.414213 3.805566 -0.000000
v 1.150364 3.541718 1.405457
v 0.574024 3.777172 -1.559976
v 0.765366 4.239112 -0.000000
v 0.622572 3.894376 1.405457
v 0.710484 0.676091 0.745529
v 1.312804 1.078548 0.745529
v 1.715261 1.680868 0.745529
v 1.856586 2.391353 0.745529
v 1.715261 3.101838 0.745529
v 1.312804 3.704157 0.745529
v 0.710484 4.106615 0.745529
v 0.710484 0.676091 -0.829999
v 1.312804 1.078548 -0.829999
v 1.715261 1.680868 -0.829999
v 1.856586 2.391353 -0.829999
v 1.715261 3.101837 -0.829999
v 1.312804 3.704157 -0.829999
v 0.710484 4.106615 -0.829999
v 0.460060 1.280669 1.904706
v 0.850080 1.541273 1.904706
v 1.110683 1.931293 1.904706
v 1.202195 2.391353 1.904706
v 1.110683 2.851413 1.904706
v 0.850080 3.241433 1.904706
v 0.460060 3.502036 1.904706
v 0.356615 1.530407 -2.112217
v 0.658939 1.732413 -2.112217
v 0.860946 2.034737 -2.112217
v 0.931881 2.391353 -2.112217
v 0.860945 2.747968 -2.112217
v 0.658939 3.050292 -2.112217
v 0.356615 3.252299 -2.112217
v 1.925859 0.094121 0.863336
v 1.935910 0.302351 1.435491
v 2.519225 0.502471 0.834313
v 2.768801 0.281167 1.415301
v 2.994929 1.112822 0.814268
v 2.872698 1.195003 1.392495
v 1.919258 0.535911 1.872386
v 2.303480 0.958771 1.853592
v 2.611513 1.195551 1.840612
v 0.000000 2.391353 2.216312
v -0.000000 2.391353 -2.456898
v 0.000000 3.048318 2.171431
v -0.000000 2.641353 -2.407254
v 0.000000 1.734388 2.171431
v -0.000000 2.141353 -2.407254
v -0.251409 1.784397 2.171431
v -0.095671 2.160383 -2.407254
v -0.464544 1.926809 2.171431
v -0.176777 2.214576 -2.407254
v -0.606956 2.139943 2.171431
v -0.230970 2.295682 -2.407254
v -0.656964 2.391353 2.171431
v -0.250000 2.391353 -2.407254
v -0.606956 2.642762 2.171431
v -0.230970 2.487024 -2.407254
v -0.464544 2.855897 2.171431
v -0.176777 2.568130 -2.407254
v -0.251409 2.998309 2.171431
v -0.095671 2.622323 -2.407254
v 0.000000 4.018214 1.405457
v -0.000000 4.391353 -0.000000
v -0.000000 3.891352 -1.559976
v -0.000000 0.891353 -1.559976
v 0.000000 0.391353 0.000000
v 0.000000 0.764492 1.405458
v -0.574025 1.005533 -1.559976
v -0.765366 0.543594 0.000000
v -0.622572 0.888329 1.405458
v -1.060660 1.330692 -1.559976
v -1.414213 0.977139 0.000000
v -1.150364 1.240988 1.405458
v -1.385819 1.817327 -1.559976
v -1.847759 1.625986 0.000000
v -1.500000 2.391353 -1.559976
v -2.000000 2.391353 0.000000
v -1.626861 2.391353 1.405458
v -1.385819 2.965378 -1.559976
v -1.847759 3.156720 0.000000
v -1.503023 3.013926 1.405458
v -1.060660 3.452013 -1.559976
v -1.414213 3.805566 0.000000
v -1.150364 3.541718 1.405458
v -0.574025 3.777172 -1.559976
v -0.765366 4.239112 -0.000000
v -0.622572 3.894376 1.405457
v 0.000000 4.247938 0.745529
v 0.000000 0.534767 0.745529
v -0.710484 0.676091 0.745529
v -1.312804 1.078548 0.745529
v -1.715261 1.680868 0.745529
v -1.856586 2.391353 0.745529
v -1.715261 3.101838 0.745529
v -1.312804 3.704157 0.745529
v -0.710484 4.106615 0.745529
v -0.000000 4.247938 -0.829999
v -0.000000 0.534767 -0.829999
v -0.710484 0.676091 -0.829999
v -1.312804 1.078548 -0.829999
v -1.715262 1.680868 -0.829999
v -1.856586 2.391353 -0.829999
v -1.715261 3.101837 -0.829999
v -1.312804 3.704157 -0.829999
v -0.710484 4.106615 -0.829999
v 0.000000 1.189158 1.904706
v -0.460060 1.280669 1.904706
v -0.850080 1.541273 1.904706
v -1.110683 1.931293 1.904706
v -1.202195 2.391353 1.904706
v -1.110683 2.851413 1.904706
v -0.850080 3.241433 1.904706
v -0.460059 3.502036 1.904706
v 0.000000 3.593547 1.904706
v -0.000000 3.323234 -2.112217
v -0.000000 1.459472 -2.112217
v -0.356615 1.530407 -2.112217
v -0.658939 1.732413 -2.112217
v -0.860946 2.034737 -2.112217
v -0.931881 2.391353 -2.112217
v -0.860946 2.747968 -2.112217
v -0.658939 3.050292 -2.112217
v -0.356615 3.252299 -2.112217
v -1.926647 0.097703 0.857765
v -1.935682 0.301957 1.431369
v -2.520147 0.506119 0.832671
v -2.768800 0.281167 1.415301
v -2.996010 1.116493 0.817740
v -2.872727 1.194686 1.396296
v -1.918301 0.532481 1.870941
v -2.302610 0.955383 1.854691
v -2.610746 1.192178 1.845023
vt -0.063089 0.533718
vt -0.063089 0.434404
vt -0.041786 0.442216
vt 0.488982 0.529513
vt 0.482301 0.500700
vt 0.488982 0.498287
vt 0.488982 0.403152
vt 0.460991 0.413470
vt -0.024181 0.464106
vt 0.476650 0.507555
vt 0.438276 0.442108
vt -0.012824 0.496100
vt 0.472889 0.517780
vt 0.423967 0.483431
vt -0.008930 0.533095
vt 0.471571 0.529800
vt 0.419139 0.530782
vt -0.012824 0.569781
vt 0.472889 0.541792
vt 0.423967 0.577681
vt -0.024181 0.601023
vt 0.476650 0.551949
vt 0.438276 0.617887
vt -0.041786 0.622147
vt 0.482301 0.558737
vt 0.460991 0.645375
vt -0.063089 0.629637
vt 0.488982 0.561121
vt 0.488982 0.655206
vt -0.019046 0.700873
vt 0.015514 0.782660
vt -0.063089 0.809833
vt -0.063089 0.716170
vt 0.084386 0.859915
vt 0.237508 0.892892
vt 0.488982 0.994126
vt 1.041053 0.912369
vt 0.375036 0.831457
vt 0.430726 0.738812
vt 0.488982 0.759020
vt 0.488982 0.871301
vt 0.014558 0.659310
vt 0.064360 0.715665
vt 0.133468 0.761158
vt 0.226301 0.776308
vt 0.321939 0.745242
vt 0.389434 0.685812
vt 0.034195 0.600516
vt 0.087783 0.629135
vt 0.150383 0.650961
vt 0.223176 0.657217
vt 0.300861 0.643001
vt 0.367138 0.613561
vt 0.040523 0.533134
vt 0.094619 0.534031
vt 0.154793 0.535470
vt 0.222399 0.534966
vt 0.295132 0.534045
vt 0.360257 0.532302
vt 0.014558 0.403278
vt 0.064360 0.344480
vt 0.124082 0.351621
vt 0.093012 0.376095
vt 0.150383 0.416578
vt 0.223176 0.408981
vt 0.300861 0.422236
vt 0.367138 0.449577
vt 0.103889 0.454635
vt 0.135042 0.456295
vt 0.133468 0.296860
vt 0.226301 0.279194
vt 0.321939 0.312171
vt 0.389434 0.373548
vt -0.019046 0.358898
vt 0.015514 0.270714
vt 0.084386 0.185022
vt 0.237508 0.146511
vt 0.375036 0.215884
vt 0.430726 0.316348
vt -0.063089 0.342370
vt -0.063089 0.240279
vt -0.063089 0.124309
vt 0.488982 0.028579
vt 0.488982 0.170509
vt 0.488982 0.294240
vt 0.166532 0.395223
vt 0.160707 0.334945
vt 0.034195 0.464707
vt 0.101230 0.414243
vt -0.063089 0.912369
vt 0.139291 0.382643
vt 0.168287 0.456157
vt 1.041053 0.533718
vt 1.019751 0.442216
vt 1.041053 0.434404
vt 0.495664 0.500700
vt 0.516973 0.413470
vt 1.002146 0.464106
vt 0.501314 0.507555
vt 0.539689 0.442108
vt 0.990788 0.496100
vt 0.505076 0.517780
vt 0.553998 0.483431
vt 0.986895 0.533095
vt 0.506394 0.529800
vt 0.558825 0.530782
vt 0.990788 0.569781
vt 0.505076 0.541792
vt 0.553998 0.577681
vt 1.002146 0.601023
vt 0.501314 0.551949
vt 0.539689 0.617887
vt 1.019751 0.622147
vt 0.495664 0.558737
vt 0.516973 0.645375
vt 1.041053 0.629637
vt 0.997011 0.700873
vt 1.041053 0.716170
vt 1.041053 0.809833
vt 0.962451 0.782660
vt 0.893579 0.859915
vt 0.740457 0.892892
vt 0.602928 0.831457
vt 0.547238 0.738812
vt 0.963407 0.659310
vt 0.913605 0.715665
vt 0.844497 0.761158
vt 0.751664 0.776308
vt 0.656025 0.745242
vt 0.588531 0.685812
vt 0.943770 0.600516
vt 0.890181 0.629135
vt 0.827582 0.650961
vt 0.754789 0.657217
vt 0.677104 0.643001
vt 0.610826 0.613560
vt 0.937442 0.533134
vt 0.883346 0.534031
vt 0.823172 0.535470
vt 0.755566 0.534966
vt 0.682832 0.534045
vt 0.617708 0.532302
vt 0.963407 0.403278
vt 0.884952 0.376095
vt 0.853882 0.351621
vt 0.913605 0.344480
vt 0.827582 0.416578
vt 0.754789 0.408981
vt 0.677104 0.422236
vt 0.610826 0.449577
vt 0.842923 0.456295
vt 0.874075 0.454635
vt 0.844497 0.296860
vt 0.751664 0.279194
vt 0.656025 0.312171
vt 0.588531 0.373548
vt 0.997011 0.358897
vt 0.962451 0.270714
vt 0.893579 0.185022
vt 0.740456 0.146511
vt 0.602928 0.215884
vt 0.547238 0.316348
vt 1.041053 0.342370
vt 1.041053 0.240279
vt 1.041054 0.124309
vt 0.817257 0.334945
vt 0.811433 0.395223
vt 0.876735 0.414243
vt 0.943770 0.464707
vt 0.838674 0.382643
vt 0.809678 0.456157
vn 0.0000 0.0000 1.0000
vn 0.0000 -0.2807 0.9598
vn 0.1074 -0.2593 0.9598
vn 0.0000 0.0000 -1.0000
vn 0.1184 -0.2860 -0.9509
vn 0.0000 -0.3096 -0.9509
vn 0.0000 -0.5713 -0.8207
vn 0.2186 -0.5278 -0.8207
vn 0.1985 -0.1985 0.9598
vn 0.2189 -0.2189 -0.9509
vn 0.4040 -0.4040 -0.8207
vn 0.2593 -0.1074 0.9598
vn 0.2860 -0.1185 -0.9509
vn 0.5278 -0.2186 -0.8207
vn 0.2807 0.0000 0.9598
vn 0.3096 0.0000 -0.9509
vn 0.5713 0.0000 -0.8207
vn 0.2593 0.1074 0.9598
vn 0.2860 0.1185 -0.9509
vn 0.5278 0.2186 -0.8207
vn 0.1985 0.1985 0.9598
vn 0.2189 0.2189 -0.9509
vn 0.4040 0.4040 -0.8207
vn 0.1074 0.2593 0.9598
vn 0.1184 0.2860 -0.9509
vn 0.2186 0.5278 -0.8207
vn 0.0000 0.2807 0.9598
vn 0.0000 0.3096 -0.9509
vn 0.0000 0.5713 -0.8207
vn 0.2406 0.5810 0.7775
vn 0.3342 0.8068 0.4872
vn 0.0000 0.8733 0.4872
vn 0.0000 0.6289 0.7775
vn 0.3698 0.8928 0.2573
vn 0.3826 0.9238 0.0092
vn 0.0000 0.9999 0.0092
vn 0.0000 0.9663 0.2573
vn 0.3647 0.8805 -0.3027
vn 0.3126 0.7547 -0.5767
vn 0.0000 0.8169 -0.5767
vn 0.0000 0.9531 -0.3027
vn 0.4447 0.4447 0.7775
vn 0.6175 0.6175 0.4872
vn 0.6833 0.6833 0.2573
vn 0.7071 0.7071 0.0092
vn 0.6739 0.6739 -0.3027
vn 0.5776 0.5776 -0.5767
vn 0.5810 0.2406 0.7775
vn 0.8068 0.3342 0.4872
vn 0.8928 0.3698 0.2573
vn 0.9238 0.3826 0.0092
vn 0.8805 0.3647 -0.3027
vn 0.7547 0.3126 -0.5767
vn 0.5213 0.1525 0.8396
vn 0.7846 0.4563 0.4197
vn 0.9673 0.2430 0.0725
vn 0.9999 0.0000 0.0092
vn 0.9531 0.0000 -0.3027
vn 0.8169 0.0000 -0.5767
vn 0.1710 -0.4153 0.8935
vn -0.2311 -0.8972 0.3764
vn -0.4238 -0.8579 0.2903
vn -0.2126 -0.5965 0.7739
vn 0.6814 -0.3054 -0.6651
vn 0.9238 -0.3826 0.0092
vn 0.8805 -0.3647 -0.3027
vn 0.7547 -0.3126 -0.5767
vn 0.5536 0.1731 0.8145
vn 0.8786 0.3258 0.3491
vn 0.3290 -0.9312 -0.1570
vn 0.7071 -0.7071 0.0092
vn 0.6739 -0.6739 -0.3027
vn 0.5776 -0.5776 -0.5767
vn 0.2406 -0.5810 0.7775
vn 0.3342 -0.8068 0.4872
vn 0.3698 -0.8928 0.2573
vn 0.3826 -0.9238 0.0092
vn 0.3647 -0.8805 -0.3027
vn 0.3126 -0.7547 -0.5767
vn 0.0000 -0.6289 0.7775
vn 0.0000 -0.8733 0.4872
vn 0.0000 -0.9663 0.2573
vn 0.0000 -0.9999 0.0092
vn 0.0000 -0.9531 -0.3027
vn 0.0000 -0.8169 -0.5767
vn 0.3739 -0.4183 -0.8278
vn -0.2596 -0.8221 -0.5066
vn 0.2041 -0.0780 0.9758
vn 0.1869 -0.1642 0.9685
vn 0.6529 -0.7091 0.2662
vn 0.8313 0.1301 -0.5404
vn -0.1074 -0.2593 0.9598
vn -0.1184 -0.2860 -0.9509
vn -0.2186 -0.5278 -0.8207
vn -0.1985 -0.1985 0.9598
vn -0.2189 -0.2189 -0.9509
vn -0.4040 -0.4040 -0.8207
vn -0.2593 -0.1074 0.9598
vn -0.2860 -0.1185 -0.9509
vn -0.5278 -0.2186 -0.8207
vn -0.2807 0.0000 0.9598
vn -0.3096 0.0000 -0.9509
vn -0.5713 0.0000 -0.8207
vn -0.2593 0.1074 0.9598
vn -0.2860 0.1185 -0.9509
vn -0.5278 0.2186 -0.8207
vn -0.1985 0.1985 0.9598
vn -0.2189 0.2189 -0.9509
vn -0.4040 0.4040 -0.8207
vn -0.1074 0.2593 0.9598
vn -0.1184 0.2860 -0.9509
vn -0.2186 0.5278 -0.8207
vn -0.2406 0.5810 0.7775
vn -0.3342 0.8068 0.4872
vn -0.3698 0.8928 0.2573
vn -0.3826 0.9238 0.0092
vn -0.3647 0.8805 -0.3027
vn -0.3126 0.7547 -0.5767
vn -0.4447 0.4447 0.7775
vn -0.6175 0.6175 0.4872
vn -0.6833 0.6833 0.2573
vn -0.7071 0.7071 0.0092
vn -0.6739 0.6739 -0.3027
vn -0.5776 0.5776 -0.5767
vn -0.5810 0.2406 0.7775
vn -0.8068 0.3342 0.4872
vn -0.8928 0.3698 0.2573
vn -0.9238 0.3826 0.0092
vn -0.8805 0.3647 -0.3027
vn -0.7547 0.3126 -0.5767
vn -0.5209 0.1523 0.8399
vn -0.7841 0.4563 0.4208
vn -0.9672 0.2433 0.0729
vn -0.9999 0.0000 0.0092
vn -0.9531 0.0000 -0.3027
vn -0.8169 0.0000 -0.5767
vn -0.1706 -0.4157 0.8933
vn 0.2147 -0.5996 0.7709
vn 0.4246 -0.8595 0.2846
vn 0.2315 -0.8979 0.3744
vn -0.6830 -0.3031 -0.6645
vn -0.9238 -0.3826 0.0092
vn -0.8805 -0.3647 -0.3027
vn -0.7547 -0.3126 -0.5767
vn -0.8781 0.3251 0.3509
vn -0.5514 0.1698 0.8168
vn -0.3288 -0.9312 -0.1575
vn -0.7071 -0.7071 0.0092
vn -0.6739 -0.6739 -0.3027
vn -0.5776 -0.5776 -0.5767
vn -0.2406 -0.5810 0.7775
vn -0.3342 -0.8068 0.4872
vn -0.3698 -0.8928 0.2573
vn -0.3826 -0.9238 0.0092
vn -0.3647 -0.8805 -0.3027
vn -0.3126 -0.7547 -0.5767
vn 0.2586 -0.8196 -0.5112
vn -0.3757 -0.4151 -0.8285
vn -0.1837 -0.1678 0.9685
vn -0.2025 -0.0793 0.9760
vn -0.6521 -0.7105 0.2644
vn -0.8327 0.1327 -0.5375
usemtl Material.001
s 1
f 72/1/1 76/2/2 1/3/3
f 73/4/4 2/5/5 77/6/6
f 146/7/7 77/6/6 2/5/5 56/8/8
f 72/1/1 1/3/3 3/9/9
f 73/4/4 4/10/10 2/5/5
f 56/8/8 2/5/5 4/10/10 57/11/11
f 72/1/1 3/9/9 5/12/12
f 73/4/4 6/13/13 4/10/10
f 57/11/11 4/10/10 6/13/13 58/14/14
f 72/1/1 5/12/12 7/15/15
f 73/4/4 8/16/16 6/13/13
f 58/14/14 6/13/13 8/16/16 59/17/17
f 72/1/1 7/15/15 9/18/18
f 73/4/4 10/19/19 8/16/16
f 59/17/17 8/16/16 10/19/19 60/20/20
f 72/1/1 9/18/18 11/21/21
f 73/4/4 12/22/22 10/19/19
f 60/20/20 10/19/19 12/22/22 61/23/23
f 72/1/1 11/21/21 13/24/24
f 73/4/4 14/25/25 12/22/22
f 61/23/23 12/22/22 14/25/25 62/26/26
f 72/1/1 13/24/24 74/27/27
f 73/4/4 75/28/28 14/25/25
f 62/26/26 14/25/25 75/28/28 145/29/29
f 55/30/30 34/31/31 92/32/32 144/33/33
f 41/34/34 33/35/35 93/36/36 118/37/37
f 48/38/38 32/39/39 94/40/40 127/41/41
f 54/42/42 31/43/43 34/31/31 55/30/30
f 40/44/44 30/45/45 33/35/35 41/34/34
f 47/46/46 29/47/47 32/39/39 48/38/38
f 53/48/48 28/49/49 31/43/43 54/42/42
f 39/50/50 27/51/51 30/45/45 40/44/44
f 46/52/52 26/53/53 29/47/47 47/46/46
f 52/54/54 25/55/55 28/49/49 53/48/48
f 38/56/56 24/57/57 27/51/51 39/50/50
f 45/58/58 23/59/59 26/53/53 46/52/52
f 50/60/60 20/61/61 64/62/62 69/63/63
f 37/64/64 22/65/65 24/57/57 38/56/56
f 44/66/66 21/67/67 23/59/59 45/58/58
f 25/55/55 52/54/54 71/68/68 68/69/69
f 36/70/70 19/71/71 22/65/65 37/64/64
f 43/72/72 18/73/73 21/67/67 44/66/66
f 49/74/74 17/75/75 20/61/61 50/60/60
f 35/76/76 16/77/77 19/71/71 36/70/70
f 42/78/78 15/79/79 18/73/73 43/72/72
f 136/80/80 97/81/81 17/75/75 49/74/74
f 119/82/82 96/83/83 16/77/77 35/76/76
f 128/84/84 95/85/85 15/79/79 42/78/78
f 97/81/81 119/82/82 35/76/76 17/75/75
f 17/75/75 35/76/76 36/70/70 20/61/61
f 36/70/70 37/64/64 65/86/86 63/87/87
f 52/54/54 51/88/88 70/89/89 71/68/68
f 25/55/55 38/56/56 39/50/50 28/49/49
f 28/49/49 39/50/50 40/44/44 31/43/43
f 31/43/43 40/44/44 41/34/34 34/31/31
f 34/31/31 41/34/34 118/90/37 92/32/32
f 96/83/83 128/84/84 42/78/78 16/77/77
f 16/77/77 42/78/78 43/72/72 19/71/71
f 19/71/71 43/72/72 44/66/66 22/65/65
f 22/65/65 44/66/66 45/58/58 24/57/57
f 24/57/57 45/58/58 46/52/52 27/51/51
f 27/51/51 46/52/52 47/46/46 30/45/45
f 30/45/45 47/46/46 48/38/38 33/35/35
f 33/35/35 48/38/38 127/41/41 93/36/36
f 76/2/2 136/80/80 49/74/74 1/3/3
f 1/3/3 49/74/74 50/60/60 3/9/9
f 3/9/9 50/60/60 51/88/88 5/12/12
f 5/12/12 51/88/88 52/54/54 7/15/15
f 7/15/15 52/54/54 53/48/48 9/18/18
f 9/18/18 53/48/48 54/42/42 11/21/21
f 11/21/21 54/42/42 55/30/30 13/24/24
f 13/24/24 55/30/30 144/33/33 74/27/27
f 32/39/39 62/26/26 145/29/29 94/40/40
f 29/47/47 61/23/23 62/26/26 32/39/39
f 26/53/53 60/20/20 61/23/23 29/47/47
f 23/59/59 59/17/17 60/20/20 26/53/53
f 21/67/67 58/14/14 59/17/17 23/59/59
f 18/73/73 57/11/11 58/14/14 21/67/67
f 15/79/79 56/8/8 57/11/11 18/73/73
f 95/85/85 146/7/7 56/8/8 15/79/79
f 70/89/89 66/91/90 71/68/68
f 69/63/63 66/91/90 70/89/89
f 64/62/62 63/87/87 66/91/90
f 66/91/90 67/92/91 68/69/69
f 51/88/88 50/60/60 69/63/63 70/89/89
f 37/64/64 38/56/56 67/92/91 65/86/86
f 38/56/56 25/55/55 68/69/69 67/92/91
f 20/61/61 36/70/70 63/87/87 64/62/62
f 66/91/90 63/87/87 65/86/86
f 67/92/91 66/91/90 65/86/86
f 71/68/68 66/91/90 68/69/69
f 66/91/90 69/63/63 64/62/62
f 72/93/1 78/94/92 76/95/2
f 73/4/4 77/6/6 79/96/93
f 146/7/7 147/97/94 79/96/93 77/6/6
f 72/93/1 80/98/95 78/94/92
f 73/4/4 79/96/93 81/99/96
f 147/97/94 148/100/97 81/99/96 79/96/93
f 72/93/1 82/101/98 80/98/95
f 73/4/4 81/99/96 83/102/99
f 148/100/97 149/103/100 83/102/99 81/99/96
f 72/93/1 84/104/101 82/101/98
f 73/4/4 83/102/99 85/105/102
f 149/103/100 150/106/103 85/105/102 83/102/99
f 72/93/1 86/107/104 84/104/101
f 73/4/4 85/105/102 87/108/105
f 150/106/103 151/109/106 87/108/105 85/105/102
f 72/93/1 88/110/107 86/107/104
f 73/4/4 87/108/105 89/111/108
f 151/109/106 152/112/109 89/111/108 87/108/105
f 72/93/1 90/113/110 88/110/107
f 73/4/4 89/111/108 91/114/111
f 152/112/109 153/115/112 91/114/111 89/111/108
f 72/93/1 74/116/27 90/113/110
f 73/4/4 91/114/111 75/28/28
f 153/115/112 145/29/29 75/28/28 91/114/111
f 143/117/113 144/118/33 92/119/32 117/120/114
f 126/121/115 118/37/37 93/36/36 116/122/116
f 135/123/117 127/41/41 94/40/40 115/124/118
f 142/125/119 143/117/113 117/120/114 114/126/120
f 125/127/121 126/121/115 116/122/116 113/128/122
f 134/129/123 135/123/117 115/124/118 112/130/124
f 141/131/125 142/125/119 114/126/120 111/132/126
f 124/133/127 125/127/121 113/128/122 110/134/128
f 133/135/129 134/129/123 112/130/124 109/136/130
f 140/137/131 141/131/125 111/132/126 108/138/132
f 123/139/133 124/133/127 110/134/128 107/140/134
f 132/141/135 133/135/129 109/136/130 106/142/136
f 138/143/137 160/144/138 155/145/139 103/146/140
f 122/147/141 123/139/133 107/140/134 105/148/142
f 131/149/143 132/141/135 106/142/136 104/150/144
f 108/138/132 159/151/145 162/152/146 140/137/131
f 121/153/147 122/147/141 105/148/142 102/154/148
f 130/155/149 131/149/143 104/150/144 101/156/150
f 137/157/151 138/143/137 103/146/140 100/158/152
f 120/159/153 121/153/147 102/154/148 99/160/154
f 129/161/155 130/155/149 101/156/150 98/162/156
f 136/163/80 137/157/151 100/158/152 97/164/81
f 119/165/82 120/159/153 99/160/154 96/83/83
f 128/84/84 129/161/155 98/162/156 95/85/85
f 97/164/81 100/158/152 120/159/153 119/165/82
f 100/158/152 103/146/140 121/153/147 120/159/153
f 121/153/147 154/166/157 156/167/158 122/147/141
f 140/137/131 162/152/146 161/168/159 139/169/160
f 108/138/132 111/132/126 124/133/127 123/139/133
f 111/132/126 114/126/120 125/127/121 124/133/127
f 114/126/120 117/120/114 126/121/115 125/127/121
f 117/120/114 92/119/32 118/37/37 126/121/115
f 96/83/83 99/160/154 129/161/155 128/84/84
f 99/160/154 102/154/148 130/155/149 129/161/155
f 102/154/148 105/148/142 131/149/143 130/155/149
f 105/148/142 107/140/134 132/141/135 131/149/143
f 107/140/134 110/134/128 133/135/129 132/141/135
f 110/134/128 113/128/122 134/129/123 133/135/129
f 113/128/122 116/122/116 135/123/117 134/129/123
f 116/122/116 93/36/36 127/41/41 135/123/117
f 76/95/2 78/94/92 137/157/151 136/163/80
f 78/94/92 80/98/95 138/143/137 137/157/151
f 80/98/95 82/101/98 139/169/160 138/143/137
f 82/101/98 84/104/101 140/137/131 139/169/160
f 84/104/101 86/107/104 141/131/125 140/137/131
f 86/107/104 88/110/107 142/125/119 141/131/125
f 88/110/107 90/113/110 143/117/113 142/125/119
f 90/113/110 74/116/27 144/118/33 143/117/113
f 115/124/118 94/40/40 145/29/29 153/115/112
f 112/130/124 115/124/118 153/115/112 152/112/109
f 109/136/130 112/130/124 152/112/109 151/109/106
f 106/142/136 109/136/130 151/109/106 150/106/103
f 104/150/144 106/142/136 150/106/103 149/103/100
f 101/156/150 104/150/144 149/103/100 148/100/97
f 98/162/156 101/156/150 148/100/97 147/97/94
f 95/85/85 98/162/156 147/97/94 146/7/7
f 161/168/159 162/152/146 157/170/161
f 160/144/138 161/168/159 157/170/161
f 155/145/139 157/170/161 154/166/157
f 157/170/161 159/151/145 158/171/162
f 139/169/160 161/168/159 160/144/138 138/143/137
f 122/147/141 156/167/158 158/171/162 123/139/133
f 123/139/133 158/171/162 159/151/145 108/138/132
f 103/146/140 155/145/139 154/166/157 121/153/147
f 157/170/161 156/167/158 154/166/157
f 158/171/162 156/167/158 157/170/161
f 162/152/146 159/151/145 157/170/161
f 157/170/161 155/145/139 160/144/138
