<?xml version="1.0" encoding="UTF-8" standalone="no"?>
<svg
   width="16"
   height="16"
   viewBox="0 0 4.2333333 4.2333333"
   version="1.1"
   id="svg8"
   inkscape:version="1.1 (c4e8f9ed74, 2021-05-24)"
   sodipodi:docname="arrow.svg"
   xmlns:inkscape="http://www.inkscape.org/namespaces/inkscape"
   xmlns:sodipodi="http://sodipodi.sourceforge.net/DTD/sodipodi-0.dtd"
   xmlns="http://www.w3.org/2000/svg"
   xmlns:svg="http://www.w3.org/2000/svg"
   xmlns:rdf="http://www.w3.org/1999/02/22-rdf-syntax-ns#"
   xmlns:cc="http://creativecommons.org/ns#"
   xmlns:dc="http://purl.org/dc/elements/1.1/">
  <defs
     id="defs2" />
  <sodipodi:namedview
     id="base"
     pagecolor="#ffffff"
     bordercolor="#666666"
     borderopacity="1.0"
     inkscape:pageopacity="0.0"
     inkscape:pageshadow="2"
     inkscape:zoom="45.254834"
     inkscape:cx="6.3197669"
     inkscape:cy="7.9659998"
     inkscape:document-units="mm"
     inkscape:current-layer="layer1"
     inkscape:document-rotation="0"
     showgrid="true"
     units="px"
     inkscape:pagecheckerboard="true"
     inkscape:window-width="1080"
     inkscape:window-height="1018"
     inkscape:window-x="1882"
     inkscape:window-y="0"
     inkscape:window-maximized="0">
    <inkscape:grid
       type="xygrid"
       id="grid10" />
  </sodipodi:namedview>
  <metadata
     id="metadata5">
    <rdf:RDF>
      <cc:Work
         rdf:about="">
        <dc:format>image/svg+xml</dc:format>
        <dc:type
           rdf:resource="http://purl.org/dc/dcmitype/StillImage" />
        <dc:title />
      </cc:Work>
    </rdf:RDF>
  </metadata>
  <g
     inkscape:label="Layer 1"
     inkscape:groupmode="layer"
     id="layer1">
    <path
       style="fill:#bfbfdd;stroke-width:0.264583;fill-opacity:1"
       d="m 3.175,0.26458333 c 0,0.26458333 0,0.54990584 0,0.52916667 L 1.0583333,1.8520833 V 2.1166667 L 3.175,3.4395833 V 3.96875 L 0.52916667,2.38125 V 1.5875 L 3.175,0.26458333 v 0"
       id="path26"
       sodipodi:nodetypes="cccccccccc" />
    <path
       style="fill:#00ff00;stroke-width:0.0220971"
       d="M 6.9882037,11.981218 2.0108349,8.9935228 V 7.5019422 6.0103619 L 6.993741,3.5189383 c 2.7405983,-1.3702831 4.987872,-2.4914238 4.993942,-2.4914238 0.0061,0 0.01103,0.4400302 0.01103,0.977845 v 0.9778449 l -3.9999113,1.9997375 -3.9999114,1.9997376 0.00586,0.5186036 0.00586,0.5186034 3.9940484,2.4962375 3.9940483,2.496238 v 0.979207 c 0,0.538564 -0.0075,0.978788 -0.01657,0.978276 -0.0091,-5.13e-4 -2.2563884,-1.345395 -4.9939413,-2.988627 z"
       id="path64"
       transform="scale(0.26458333)" />
  </g>
</svg>
