<?xml version="1.0" encoding="UTF-8" standalone="no"?>
<svg
   width="16"
   height="16"
   viewBox="0 0 4.2333333 4.2333333"
   version="1.1"
   id="svg8"
   inkscape:version="1.1 (c4e8f9ed74, 2021-05-24)"
   sodipodi:docname="arrow_r.svg"
   xmlns:inkscape="http://www.inkscape.org/namespaces/inkscape"
   xmlns:sodipodi="http://sodipodi.sourceforge.net/DTD/sodipodi-0.dtd"
   xmlns="http://www.w3.org/2000/svg"
   xmlns:svg="http://www.w3.org/2000/svg"
   xmlns:rdf="http://www.w3.org/1999/02/22-rdf-syntax-ns#"
   xmlns:cc="http://creativecommons.org/ns#"
   xmlns:dc="http://purl.org/dc/elements/1.1/">
  <defs
     id="defs2" />
  <sodipodi:namedview
     id="base"
     pagecolor="#ffffff"
     bordercolor="#666666"
     borderopacity="1.0"
     inkscape:pageopacity="0.0"
     inkscape:pageshadow="2"
     inkscape:zoom="32"
     inkscape:cx="10.09375"
     inkscape:cy="8.609375"
     inkscape:document-units="mm"
     inkscape:current-layer="layer1"
     inkscape:document-rotation="0"
     showgrid="true"
     units="px"
     inkscape:pagecheckerboard="true"
     inkscape:window-width="1080"
     inkscape:window-height="1018"
     inkscape:window-x="1882"
     inkscape:window-y="0"
     inkscape:window-maximized="0">
    <inkscape:grid
       type="xygrid"
       id="grid10" />
  </sodipodi:namedview>
  <metadata
     id="metadata5">
    <rdf:RDF>
      <cc:Work
         rdf:about="">
        <dc:format>image/svg+xml</dc:format>
        <dc:type
           rdf:resource="http://purl.org/dc/dcmitype/StillImage" />
        <dc:title />
      </cc:Work>
    </rdf:RDF>
  </metadata>
  <g
     inkscape:label="Layer 1"
     inkscape:groupmode="layer"
     id="layer1">
    <path
       style="fill:#bfbfdd;fill-opacity:1;stroke-width:0.264583"
       d="m 1.0612,0.26458333 c 0,0.26458333 0,0.54990584 0,0.52916667 L 3.1778668,1.8520833 V 2.1166667 L 1.0612,3.4395833 V 3.96875 L 3.7070334,2.38125 V 1.5875 L 1.0612,0.26458333 v 0"
       id="path26"
       sodipodi:nodetypes="cccccccccc" />
    <path
       style="fill:#00ff00;stroke-width:0.00584652"
       d="M 2.3872379,3.1700306 3.7041667,2.3795362 V 1.9848888 1.5902416 L 2.3857728,0.93105241 C 1.6606562,0.56849835 1.066065,0.27186321 1.0644589,0.27186321 c -0.00161,0 -0.00292,0.11642465 -0.00292,0.25872148 v 0.25872146 l 1.0583096,0.52909725 1.0583099,0.5290972 -0.00155,0.1372139 -0.00155,0.1372138 -1.0567586,0.6604628 -1.0567586,0.660463 v 0.2590818 c 0,0.1424951 0.00198,0.258971 0.00438,0.2588355 0.00241,-1.357e-4 0.5970028,-0.355969 1.3213137,-0.7907408 z"
       id="path64" />
  </g>
</svg>
