# Blender v2.80 (sub 75) OBJ File: 'basicGun.blend'
# www.blender.org
mtllib basicGun.mtl
o basicGun
v -0.140625 0.140625 -0.375000
v -0.140625 0.140625 -1.125000
v -0.140625 0.140625 -0.375000
v -0.165697 0.165697 -0.350000
v -0.165697 0.165697 -0.250000
v 0.140625 0.140625 -0.375000
v 0.140625 0.140625 -1.125000
v -0.000000 0.187500 -0.375000
v -0.000000 0.187500 -1.125000
v 0.140625 0.140625 -0.375000
v -0.000000 0.187500 -0.375000
v 0.165697 0.165697 -0.350000
v -0.000000 0.220929 -0.350000
v 0.165697 0.165697 -0.250000
v -0.000000 0.220929 -0.250000
v -0.140625 -0.140625 -0.375000
v -0.140625 -0.140625 -1.125000
v -0.140625 -0.140625 -0.375000
v -0.187500 0.000000 -0.375000
v -0.187500 0.000000 -1.125000
v -0.187500 0.000000 -0.375000
v -0.220929 0.000000 -0.250000
v -0.220929 0.000000 -0.350000
v -0.165697 -0.165697 -0.350000
v -0.165697 -0.165697 -0.250000
v 0.140625 -0.140625 -0.375000
v 0.140625 -0.140625 -1.125000
v -0.000000 -0.187500 -0.375000
v -0.000000 -0.187500 -1.125000
v 0.140625 -0.140625 -0.375000
v -0.000000 -0.187500 -0.375000
v 0.187500 0.000000 -0.375000
v 0.187500 0.000000 -1.125000
v 0.187500 0.000000 -0.375000
v 0.220929 0.000000 -0.250000
v 0.220929 0.000000 -0.350000
v 0.165697 -0.165697 -0.350000
v -0.000000 -0.220929 -0.350000
v 0.165697 -0.165697 -0.250000
v -0.000000 -0.220929 -0.250000
v 0.000000 0.000000 0.000000
v -0.100811 0.100811 -1.124898
v 0.100811 0.100811 -1.124898
v -0.000000 0.134415 -1.124898
v -0.100811 -0.100811 -1.124898
v -0.134415 0.000000 -1.124898
v 0.100811 -0.100811 -1.124898
v -0.000000 -0.134415 -1.124898
v 0.134415 0.000000 -1.124898
v -0.000000 0.000000 -1.125000
vt 0.000000 0.000000
vt 0.000000 0.000000
vt 0.000000 0.000000
vt 0.000000 0.000000
vt 0.000000 0.000000
vt 0.000000 0.000000
vt 0.000000 0.000000
vt 0.000000 0.000000
vt 0.000000 0.000000
vt 0.000000 0.000000
vt 0.000000 0.000000
vt 0.000000 0.000000
vt 0.000000 0.000000
vt 0.000000 0.000000
vt 0.000000 0.000000
vt 0.000000 0.000000
vt 0.000000 0.000000
vt 0.000000 0.000000
vt 0.000000 0.000000
vt 0.000000 0.000000
vt 0.000000 0.000000
vt 0.000000 0.000000
vt 0.000000 0.000000
vt 0.000000 0.000000
vt 0.000000 0.000000
vt 0.000000 0.000000
vt 0.000000 0.000000
vt 0.000000 0.000000
vt 0.000000 0.000000
vt 0.000000 0.000000
vt 0.000000 0.000000
vt 0.000000 0.000000
vt 0.000000 0.000000
vt 0.000000 0.000000
vt 0.000000 0.000000
vt 0.000000 0.000000
vt 0.000000 0.000000
vt 0.000000 0.000000
vt 0.000000 0.000000
vt 0.000000 0.000000
vt 0.000000 0.000000
vt 0.000000 0.000000
vt 0.000000 0.000000
vt 0.000000 0.000000
vt 0.000000 0.000000
vt 0.000000 0.000000
vt 0.000000 0.000000
vt 0.000000 0.000000
vt 0.000000 0.000000
vt 0.000000 0.000000
vn -0.0019 0.0006 -1.0000
vn -0.0019 -0.0006 -1.0000
vn 0.0006 -0.0019 -1.0000
vn 0.0006 0.0019 -1.0000
vn -0.0006 -0.0019 -1.0000
vn -0.0006 0.0019 -1.0000
vn 0.0019 0.0006 -1.0000
vn 0.0019 -0.0006 -1.0000
vn -1.0000 0.0000 0.0000
vn -0.7071 0.7071 0.0000
vn -0.5551 0.5551 -0.6195
vn -0.7659 0.0000 -0.6430
vn 0.0000 1.0000 0.0000
vn 0.0000 0.7659 -0.6430
vn 1.0000 0.0000 0.0000
vn 0.7659 0.0000 -0.6430
vn 0.5551 0.5551 -0.6195
vn 0.7071 0.7071 0.0000
vn -0.5551 -0.5551 -0.6195
vn -0.7071 -0.7071 0.0000
vn 0.0000 -0.7659 -0.6430
vn 0.0000 -1.0000 0.0000
vn 0.7071 -0.7071 0.0000
vn 0.5551 -0.5551 -0.6195
vn 0.0000 0.0000 -1.0000
vn 0.0000 -0.0009 -1.0000
vn -0.0006 -0.0006 -1.0000
vn -0.0009 0.0000 -1.0000
vn -0.0006 0.0006 -1.0000
vn 0.0000 0.0009 -1.0000
vn 0.0006 0.0006 -1.0000
vn 0.0009 0.0000 -1.0000
vn 0.0006 -0.0006 -1.0000
vn -0.5159 0.5159 0.6839
vn 0.5159 0.5159 0.6839
vn -0.5159 -0.5159 0.6839
vn 0.5159 -0.5159 0.6839
vn 0.0000 0.5989 -0.8008
vn -0.4075 0.4075 -0.8173
vn -0.6437 0.6437 -0.4138
vn 0.0000 0.9097 -0.4152
vn -0.5989 0.0000 -0.8008
vn -0.9097 0.0000 -0.4152
vn -0.9206 0.0000 0.3906
vn -0.6690 0.6690 0.3237
vn 0.0000 0.9206 0.3906
vn 0.6437 0.6437 -0.4138
vn 0.4075 0.4075 -0.8173
vn 0.9097 0.0000 -0.4152
vn 0.5989 0.0000 -0.8008
vn 0.6690 0.6690 0.3237
vn 0.9206 0.0000 0.3906
vn 0.0000 -0.5989 -0.8008
vn 0.0000 -0.9097 -0.4152
vn -0.6437 -0.6437 -0.4138
vn -0.4075 -0.4075 -0.8173
vn -0.6690 -0.6690 0.3237
vn 0.0000 -0.9206 0.3906
vn 0.4075 -0.4075 -0.8173
vn 0.6437 -0.6437 -0.4138
vn 0.6690 -0.6690 0.3237
usemtl barrel
s off
f 33/1/1 27/2/1 47/3/1 49/4/1
f 7/5/2 33/1/2 49/4/2 43/6/2
f 2/7/3 9/8/3 44/9/3 42/10/3
f 29/11/4 17/12/4 45/13/4 48/14/4
f 9/8/5 7/5/5 43/6/5 44/9/5
f 27/2/6 29/11/6 48/14/6 47/3/6
f 17/12/7 20/15/7 46/16/7 45/13/7
f 20/15/8 2/7/8 42/10/8 46/16/8
s 1
f 19/17/9 1/18/10 2/7/11 20/15/12
f 1/18/10 8/19/13 9/8/14 2/7/11
f 32/20/15 33/1/16 7/5/17 6/21/18
f 6/21/18 7/5/17 9/8/14 8/19/13
f 19/17/9 20/15/12 17/12/19 16/22/20
f 16/22/20 17/12/19 29/11/21 28/23/22
f 32/20/15 26/24/23 27/2/24 33/1/16
f 26/24/23 28/23/22 29/11/21 27/2/24
usemtl hole
f 50/25/25 44/9/26 43/6/27 49/4/28
f 47/3/29 48/14/30 50/25/25 49/4/28
f 50/25/25 48/14/30 45/13/31 46/16/32
f 42/10/33 44/9/26 50/25/25 46/16/32
usemtl handle
s off
f 22/26/34 41/27/34 15/28/34 5/29/34
f 35/30/35 14/31/35 15/28/35 41/27/35
f 22/26/36 25/32/36 40/33/36 41/27/36
f 35/30/37 41/27/37 40/33/37 39/34/37
s 1
f 11/35/38 3/36/39 4/37/40 13/38/41
f 3/36/39 21/39/42 23/40/43 4/37/40
f 4/37/40 23/40/43 22/26/44 5/29/45
f 13/38/41 4/37/40 5/29/45 15/28/46
f 11/35/38 13/38/41 12/41/47 10/42/48
f 10/42/48 12/41/47 36/43/49 34/44/50
f 12/41/47 14/31/51 35/30/52 36/43/49
f 13/38/41 15/28/46 14/31/51 12/41/47
f 31/45/53 38/46/54 24/47/55 18/48/56
f 18/48/56 24/47/55 23/40/43 21/39/42
f 24/47/55 25/32/57 22/26/44 23/40/43
f 38/46/54 40/33/58 25/32/57 24/47/55
f 31/45/53 30/49/59 37/50/60 38/46/54
f 30/49/59 34/44/50 36/43/49 37/50/60
f 37/50/60 36/43/49 35/30/52 39/34/61
f 38/46/54 37/50/60 39/34/61 40/33/58
