# Blender v2.81 (sub 16) OBJ File: ''
# www.blender.org
mtllib catHead.mtl
o Sphere
v -0.461940 0.364478 0.003879
v -0.500000 0.555820 0.003879
v -0.353553 0.555820 -0.314319
v -0.326641 0.364478 -0.290097
v -0.461940 0.747162 0.003879
v -0.336160 1.244551 0.005883
v -0.326641 0.747162 -0.290097
v -0.177502 0.906490 0.043473
v 0.013840 0.888731 0.039594
v -0.135299 1.017760 -0.117890
v 0.000000 0.000000 0.000000
v -0.191342 0.093880 0.003879
v -0.135299 0.093880 -0.117890
v -0.353553 0.202267 0.003879
v -0.250000 0.202267 -0.221121
v 0.000000 0.038060 -0.172207
v 0.000000 0.308658 -0.415746
v 0.000000 0.146446 -0.318198
v 0.000000 0.691342 -0.415746
v 0.000000 0.500000 -0.450000
v -0.250000 0.909373 -0.221121
v 0.000000 0.961940 -0.172207
v 0.000000 0.853553 -0.318198
v 0.135299 1.017760 -0.117890
v 0.250000 0.909373 -0.221121
v 0.250000 0.202267 -0.221121
v 0.135299 0.093880 -0.117890
v 0.353553 0.555820 -0.314319
v 0.326641 0.364478 -0.290097
v 0.326641 0.747162 -0.290097
v 0.353553 0.202267 0.003879
v 0.191342 0.093880 0.003879
v 0.500000 0.555820 0.003879
v 0.461940 0.364478 0.003879
v 0.363840 1.244551 0.005883
v 0.461940 0.747162 0.003879
v 0.205182 0.906490 0.043473
v 0.135299 1.017760 0.125648
v 0.135299 0.093880 0.125648
v 0.326641 0.364478 0.297856
v 0.250000 0.202267 0.228879
v 0.326641 0.747162 0.297856
v 0.353553 0.555820 0.322077
v 0.250000 0.909373 0.228879
v 0.000000 0.308658 0.415746
v 0.000000 0.146446 0.318198
v 0.000000 0.691342 0.415746
v 0.000000 0.500000 0.450000
v 0.000000 0.961940 0.172208
v 0.000000 0.853553 0.318198
v 0.000000 0.038060 0.172208
v -0.250000 0.202267 0.228879
v -0.135299 0.093880 0.125648
v -0.353553 0.555820 0.322077
v -0.326641 0.364478 0.297856
v -0.250000 0.909373 0.228879
v -0.326641 0.747162 0.297856
v -0.135299 1.017760 0.125648
vt 0.961940 0.358118
vt 1.000000 0.546121
vt 0.853553 0.546121
vt 0.826641 0.358118
vt 0.057146 0.968572
vt 0.057146 0.977145
vt 0.048573 0.968572
vt 0.057146 0.985718
vt 0.052859 0.994291
vt 0.048573 0.985718
vt 0.500000 0.000000
vt 0.691342 0.092242
vt 0.635299 0.092242
vt 0.853553 0.198737
vt 0.750000 0.198737
vt 0.961940 0.734124
vt 0.826641 0.734124
vt 0.500000 0.037396
vt 0.500000 0.303272
vt 0.500000 0.143891
vt 0.500000 0.679278
vt 0.500000 0.491275
vt 0.750000 0.893505
vt 0.635299 1.000000
vt 0.500000 0.945154
vt 0.500000 0.838659
vt 0.044286 0.994291
vt 0.040000 0.985718
vt 0.364701 1.000000
vt 0.250000 0.893505
vt 0.250000 0.198737
vt 0.364701 0.092242
vt 0.146447 0.546121
vt 0.173359 0.358118
vt 0.173359 0.734124
vt 0.035714 0.994291
vt 0.031427 0.985718
vt 0.146447 0.198737
vt 0.308658 0.092242
vt 0.000000 0.546121
vt 0.038060 0.358118
vt 0.031427 0.968572
vt 0.022854 0.977145
vt 0.022854 0.968572
vt 0.027141 0.994291
vt 0.022854 0.985718
vt 0.038060 0.734124
vt 0.031427 0.977145
vt 0.018568 0.994291
vt 0.014281 0.985718
vt 0.018568 0.925708
vt 0.022854 0.934281
vt 0.014281 0.934281
vt 0.022854 0.942854
vt 0.022854 0.951426
vt 0.014281 0.951426
vt 0.014281 0.942854
vt 0.022854 0.959999
vt 0.014281 0.968572
vt 0.014281 0.959999
vt 0.014281 0.977145
vt 0.005709 0.951426
vt 0.005709 0.942854
vt 0.005709 0.968572
vt 0.005709 0.959999
vt 0.005709 0.985718
vt 0.005709 0.977145
vt 0.005709 0.934281
vt 0.009995 0.994291
vt 0.009995 0.925708
vt 0.074291 0.934281
vt 0.074291 0.942854
vt 0.065719 0.942854
vt 0.065719 0.934281
vt 0.074291 0.951426
vt 0.074291 0.959999
vt 0.065719 0.959999
vt 0.065719 0.951426
vt 0.074291 0.968572
vt 0.074291 0.977145
vt 0.065719 0.977145
vt 0.065719 0.968572
vt 0.074291 0.985718
vt 0.070005 0.994291
vt 0.065719 0.985718
vt 0.070005 0.925708
vt 0.057146 0.959999
vt 0.057146 0.951426
vt 0.061432 0.994291
vt 0.061432 0.925708
vt 0.057146 0.934281
vt 0.057146 0.942854
vt 0.048573 0.977145
vn -0.9308 -0.3654 -0.0000
vn -1.0000 0.0000 -0.0000
vn -0.6856 0.0086 -0.7279
vn -0.6610 -0.3403 -0.6688
vn -0.9758 0.2187 -0.0004
vn -0.2220 0.9750 0.0092
vn -0.6041 0.3065 -0.7356
vn 0.5367 0.8296 -0.1539
vn -0.0157 0.9952 -0.0962
vn 0.3884 0.8993 -0.2008
vn -0.0000 -1.0000 -0.0031
vn -0.5125 -0.8587 0.0006
vn -0.4630 -0.8295 -0.3124
vn -0.7316 -0.6817 -0.0000
vn -0.5629 -0.6462 -0.5153
vn 0.0000 -0.9179 -0.3969
vn 0.0000 -0.3658 -0.9307
vn 0.0000 -0.6996 -0.7146
vn -0.0000 0.3157 -0.9489
vn 0.0000 -0.0175 -0.9998
vn -0.1595 0.5697 -0.8062
vn 0.0062 0.9435 -0.3314
vn -0.0000 0.6081 -0.7938
vn -0.3700 0.9160 -0.1551
vn 0.1465 0.5686 -0.8094
vn 0.5629 -0.6462 -0.5153
vn 0.4630 -0.8295 -0.3124
vn 0.6856 0.0086 -0.7279
vn 0.6610 -0.3403 -0.6688
vn 0.6011 0.2994 -0.7410
vn 0.7316 -0.6817 -0.0000
vn 0.5125 -0.8587 0.0006
vn 1.0000 0.0000 -0.0000
vn 0.9308 -0.3654 -0.0000
vn 0.2685 0.9632 0.0103
vn 0.9809 0.1943 -0.0005
vn -0.5640 0.8111 -0.1550
vn -0.3864 0.9223 -0.0049
vn 0.4551 -0.8319 0.3176
vn 0.6539 -0.3410 0.6753
vn 0.5555 -0.6473 0.5220
vn 0.5932 0.2987 0.7476
vn 0.6787 0.0086 0.7344
vn 0.1313 0.5643 0.8150
vn -0.0000 -0.3638 0.9315
vn 0.0000 -0.6973 0.7168
vn -0.0000 0.3136 0.9496
vn -0.0000 -0.0175 0.9998
vn 0.0117 0.9671 0.2540
vn -0.0000 0.6048 0.7964
vn -0.0000 -0.9182 0.3960
vn -0.5555 -0.6473 0.5220
vn -0.4551 -0.8319 0.3176
vn -0.6787 0.0086 0.7344
vn -0.6539 -0.3410 0.6753
vn -0.1440 0.5653 0.8122
vn -0.5963 0.3060 0.7422
vn 0.4228 0.9048 0.0503
usemtl None
s 1
f 1/1/1 2/2/2 3/3/3 4/4/4
f 5/5/5 6/6/6 7/7/7
f 8/8/8 9/9/9 10/10/10
f 11/11/11 12/12/12 13/13/13
f 14/14/14 1/1/1 4/4/4 15/15/15
f 2/2/2 5/16/5 7/17/7 3/3/3
f 6/6/6 8/8/8 10/10/10
f 12/12/12 14/14/14 15/15/15 13/13/13
f 11/11/11 13/13/13 16/18/16
f 15/15/15 4/4/4 17/19/17 18/20/18
f 3/3/3 7/17/7 19/21/19 20/22/20
f 21/23/21 10/24/10 22/25/22 23/26/23
f 13/13/13 15/15/15 18/20/18 16/18/16
f 4/4/4 3/3/3 20/22/20 17/19/17
f 7/17/7 21/23/21 23/26/23 19/21/19
f 10/10/10 9/27/9 22/28/22
f 23/26/23 22/25/22 24/29/24 25/30/25
f 16/18/16 18/20/18 26/31/26 27/32/27
f 17/19/17 20/22/20 28/33/28 29/34/29
f 19/21/19 23/26/23 25/30/25 30/35/30
f 22/28/22 9/36/9 24/37/24
f 11/11/11 16/18/16 27/32/27
f 18/20/18 17/19/17 29/34/29 26/31/26
f 20/22/20 19/21/19 30/35/30 28/33/28
f 27/32/27 26/31/26 31/38/31 32/39/32
f 29/34/29 28/33/28 33/40/33 34/41/34
f 30/42/30 35/43/35 36/44/36
f 24/37/24 9/45/9 37/46/37
f 11/11/11 27/32/27 32/39/32
f 26/31/26 29/34/29 34/41/34 31/38/31
f 28/33/28 30/35/30 36/47/36 33/40/33
f 25/48/25 24/37/24 35/43/35
f 37/46/37 9/49/9 38/50/38
f 11/51/11 32/52/32 39/53/39
f 31/54/31 34/55/34 40/56/40 41/57/41
f 33/58/33 36/44/36 42/59/42 43/60/43
f 35/43/35 38/50/38 44/61/44
f 32/52/32 31/54/31 41/57/41 39/53/39
f 34/55/34 33/58/33 43/60/43 40/56/40
f 36/44/36 35/43/35 42/59/42
f 41/57/41 40/56/40 45/62/45 46/63/46
f 43/60/43 42/59/42 47/64/47 48/65/48
f 44/61/44 38/50/38 49/66/49 50/67/50
f 39/53/39 41/57/41 46/63/46 51/68/51
f 40/56/40 43/60/43 48/65/48 45/62/45
f 42/59/42 44/61/44 50/67/50 47/64/47
f 38/50/38 9/69/9 49/66/49
f 11/70/11 39/53/39 51/68/51
f 51/71/51 46/72/46 52/73/52 53/74/53
f 45/75/45 48/76/48 54/77/54 55/78/55
f 47/79/47 50/80/50 56/81/56 57/82/57
f 49/83/49 9/84/9 58/85/58
f 11/86/11 51/71/51 53/74/53
f 46/72/46 45/75/45 55/78/55 52/73/52
f 48/76/48 47/79/47 57/82/57 54/77/54
f 50/80/50 49/83/49 58/85/58 56/81/56
f 55/78/55 54/77/54 2/87/2 1/88/1
f 57/82/57 6/6/6 5/5/5
f 58/85/58 9/89/9 8/8/8
f 11/90/11 53/74/53 12/91/12
f 52/73/52 55/78/55 1/88/1 14/92/14
f 54/77/54 57/82/57 5/5/5 2/87/2
f 56/81/56 58/85/58 6/6/6
f 53/74/53 52/73/52 14/92/14 12/91/12
f 42/59/42 35/43/35 44/61/44
f 35/43/35 30/42/30 25/48/25
f 7/7/7 6/6/6 21/93/21
f 6/6/6 57/82/57 56/81/56
f 6/6/6 58/85/58 8/8/8
f 38/50/38 35/43/35 37/46/37
f 10/10/10 21/93/21 6/6/6
f 35/43/35 24/37/24 37/46/37
